<?xml version="1.0" standalone="no"?><svg xmlns="http://www.w3.org/2000/svg" viewBox="0 0 1440 320"><path fill="#ffffff" fill-opacity="1" d="M0,32L21.8,42.7C43.6,53,87,75,131,90.7C174.5,107,218,117,262,128C305.5,139,349,149,393,160C436.4,171,480,181,524,202.7C567.3,224,611,256,655,272C698.2,288,742,288,785,282.7C829.1,277,873,267,916,240C960,213,1004,171,1047,144C1090.9,117,1135,107,1178,128C1221.8,149,1265,203,1309,192C1352.7,181,1396,107,1418,69.3L1440,32L1440,320L1418.2,320C1396.4,320,1353,320,1309,320C1265.5,320,1222,320,1178,320C1134.5,320,1091,320,1047,320C1003.6,320,960,320,916,320C872.7,320,829,320,785,320C741.8,320,698,320,655,320C610.9,320,567,320,524,320C480,320,436,320,393,320C349.1,320,305,320,262,320C218.2,320,175,320,131,320C87.3,320,44,320,22,320L0,320Z"></path></svg>